<svg xmlns="http://www.w3.org/2000/svg" version="1.1" xmlns:xlink="http://www.w3.org/1999/xlink" xmlns:svgjs="http://svgjs.com/svgjs" width="1440" height="560" preserveAspectRatio="none" viewBox="0 0 1440 560"><g mask="url(&quot;#SvgjsMask1000&quot;)" fill="none"><rect width="1440" height="560" x="0" y="0" fill="#0e2a47"></rect><path d="M 0,101 C 57.6,111.6 172.8,150 288,154 C 403.2,158 460.8,109.2 576,121 C 691.2,132.8 748.8,234.8 864,213 C 979.2,191.2 1036.8,5.8 1152,12 C 1267.2,18.2 1382.4,197.6 1440,244L1440 560L0 560z" fill="#184a7e"></path><path d="M 0,449 C 96,442.4 288,412.8 480,416 C 672,419.2 768,467.2 960,465 C 1152,462.8 1344,417 1440,405L1440 560L0 560z" fill="#2264ab"></path></g><defs><mask id="SvgjsMask1000"><rect width="1440" height="560" fill="#ffffff"></rect></mask></defs></svg>